<?xml version="1.0" standalone="no"?>
<!DOCTYPE svg PUBLIC "-//W3C//DTD SVG 20010904//EN"
 "http://www.w3.org/TR/2001/REC-SVG-20010904/DTD/svg10.dtd">
<svg version="1.0" xmlns="http://www.w3.org/2000/svg"
 width="128.000000pt" height="128.000000pt" viewBox="0 0 128.000000 128.000000"
 preserveAspectRatio="xMidYMid meet">

<g transform="translate(0.000000,128.000000) scale(0.100000,-0.100000)"
fill="#000000" stroke="none">
<path d="M550 1267 c-59 -16 -105 -45 -155 -96 -27 -29 -48 -41 -67 -41 -48 0
-132 -38 -170 -77 -49 -51 -69 -96 -75 -162 -13 -147 78 -261 229 -284 l68
-11 0 -73 0 -73 35 0 35 0 0 75 0 75 190 0 190 0 0 -75 0 -75 35 0 35 0 0 74
0 73 69 6 c76 6 131 30 173 74 121 127 41 346 -134 369 -45 6 -49 10 -77 58
-37 65 -82 108 -150 142 -65 32 -162 41 -231 21z"/>
<path d="M150 455 l0 -75 40 0 40 0 0 75 0 75 -40 0 -40 0 0 -75z"/>
<path d="M600 455 l0 -75 40 0 40 0 0 75 0 75 -40 0 -40 0 0 -75z"/>
<path d="M1050 455 l0 -75 40 0 40 0 0 75 0 75 -40 0 -40 0 0 -75z"/>
<path d="M380 305 l0 -75 35 0 35 0 0 75 0 75 -35 0 -35 0 0 -75z"/>
<path d="M830 305 l0 -75 35 0 35 0 0 75 0 75 -35 0 -35 0 0 -75z"/>
<path d="M150 225 l0 -75 40 0 40 0 0 75 0 75 -40 0 -40 0 0 -75z"/>
<path d="M600 225 l0 -75 40 0 40 0 0 75 0 75 -40 0 -40 0 0 -75z"/>
<path d="M1050 225 l0 -75 40 0 40 0 0 75 0 75 -40 0 -40 0 0 -75z"/>
<path d="M380 75 l0 -75 35 0 35 0 0 75 0 75 -35 0 -35 0 0 -75z"/>
<path d="M830 75 l0 -75 35 0 35 0 0 75 0 75 -35 0 -35 0 0 -75z"/>
</g>
</svg>
