<?xml version="1.0" standalone="no"?>
<!DOCTYPE svg PUBLIC "-//W3C//DTD SVG 20010904//EN"
 "http://www.w3.org/TR/2001/REC-SVG-20010904/DTD/svg10.dtd">
<svg version="1.0" xmlns="http://www.w3.org/2000/svg"
 width="128.000000pt" height="128.000000pt" viewBox="0 0 128.000000 128.000000"
 preserveAspectRatio="xMidYMid meet">

<g transform="translate(0.000000,128.000000) scale(0.100000,-0.100000)"
fill="#000000" stroke="none">
<path d="M423 1261 c-100 -34 -171 -113 -194 -216 -11 -49 -15 -55 -53 -69
-59 -23 -107 -66 -141 -127 -25 -46 -29 -65 -29 -129 -1 -90 29 -157 95 -213
77 -66 83 -67 569 -67 l436 0 52 26 c136 68 161 248 48 352 -24 22 -57 43 -73
46 -26 6 -32 13 -37 47 -20 123 -113 202 -238 204 -67 1 -67 1 -98 43 -75 103
-213 146 -337 103z"/>
<path d="M290 345 c-15 -18 -10 -45 13 -59 34 -22 73 27 47 59 -16 19 -44 19
-60 0z"/>
<path d="M610 345 c-15 -18 -10 -45 13 -59 34 -22 73 27 47 59 -16 19 -44 19
-60 0z"/>
<path d="M930 345 c-26 -32 13 -81 48 -59 22 14 27 41 12 59 -16 19 -44 19
-60 0z"/>
<path d="M130 205 c-26 -32 13 -81 48 -59 22 14 27 41 12 59 -16 19 -44 19
-60 0z"/>
<path d="M450 205 c-15 -18 -10 -45 13 -59 34 -22 73 27 47 59 -16 19 -44 19
-60 0z"/>
<path d="M770 205 c-15 -18 -10 -45 13 -59 34 -22 73 27 47 59 -16 19 -44 19
-60 0z"/>
<path d="M1090 205 c-15 -18 -10 -45 13 -59 34 -22 73 27 47 59 -16 19 -44 19
-60 0z"/>
<path d="M290 65 c-26 -32 13 -81 48 -59 22 14 27 41 12 59 -16 19 -44 19 -60
0z"/>
<path d="M610 65 c-26 -32 13 -81 48 -59 34 22 22 74 -18 74 -10 0 -23 -7 -30
-15z"/>
<path d="M930 65 c-26 -32 13 -81 48 -59 22 14 27 41 12 59 -16 19 -44 19 -60
0z"/>
</g>
</svg>
