<?xml version="1.0" standalone="no"?>
<!DOCTYPE svg PUBLIC "-//W3C//DTD SVG 20010904//EN"
 "http://www.w3.org/TR/2001/REC-SVG-20010904/DTD/svg10.dtd">
<svg version="1.0" xmlns="http://www.w3.org/2000/svg"
 width="128.000000pt" height="128.000000pt" viewBox="0 0 128.000000 128.000000"
 preserveAspectRatio="xMidYMid meet">

<g transform="translate(0.000000,128.000000) scale(0.100000,-0.100000)"
fill="#000000" stroke="none">
<path d="M606 1258 c-11 -15 -16 -45 -16 -90 l0 -68 -61 45 c-67 49 -80 53
-103 29 -31 -31 -19 -52 74 -121 l90 -68 0 -127 c0 -71 -3 -128 -6 -128 -5 0
-202 116 -211 124 -1 1 -7 47 -13 102 -14 121 -22 144 -54 144 -41 0 -49 -22
-42 -105 4 -41 5 -75 2 -75 -3 0 -31 16 -63 35 -66 40 -98 44 -113 15 -16 -30
1 -53 70 -95 33 -20 60 -38 60 -39 0 -2 -32 -15 -70 -30 -74 -29 -97 -59 -70
-91 18 -22 45 -18 149 24 l94 38 109 -65 c59 -35 108 -68 108 -72 0 -4 -49
-37 -108 -72 l-109 -65 -94 38 c-104 42 -131 46 -149 24 -27 -32 -4 -62 70
-91 38 -15 70 -28 70 -30 0 -1 -27 -19 -60 -39 -63 -39 -84 -63 -74 -89 13
-33 51 -30 115 8 33 20 63 36 65 36 3 0 2 -34 -2 -75 -7 -83 1 -105 42 -105
33 0 40 20 53 139 6 58 12 106 14 107 9 8 206 124 211 124 3 0 6 -57 6 -128
l0 -127 -90 -68 c-93 -69 -105 -90 -74 -121 23 -24 36 -20 103 29 l61 45 0
-68 c0 -73 17 -112 50 -112 33 0 50 39 50 112 l0 68 61 -45 c69 -51 79 -53
103 -26 27 30 14 51 -79 121 l-85 65 0 127 c0 71 3 128 6 128 5 0 202 -116
211 -124 2 -1 8 -49 14 -107 13 -119 20 -139 53 -139 41 0 49 22 42 105 -4 41
-5 75 -2 75 2 0 32 -16 65 -36 65 -39 104 -41 113 -6 8 29 -7 48 -72 87 -33
20 -60 38 -60 39 0 2 32 15 70 30 74 29 97 59 70 91 -18 22 -45 18 -149 -24
l-94 -38 -109 65 c-59 35 -108 68 -108 72 0 4 49 37 108 72 l109 65 94 -38
c104 -42 131 -46 149 -24 27 32 4 62 -70 91 -38 15 -70 28 -70 30 0 1 27 19
60 39 65 39 80 58 72 87 -9 35 -48 33 -113 -6 -33 -20 -63 -36 -65 -36 -3 0
-2 34 2 75 7 83 -1 105 -42 105 -33 0 -40 -20 -53 -139 -6 -58 -12 -106 -14
-107 -9 -8 -206 -124 -211 -124 -3 0 -6 57 -6 128 l0 127 85 65 c93 70 106 91
79 121 -24 27 -34 25 -103 -26 l-61 -45 0 68 c0 73 -17 112 -50 112 -10 0 -26
-10 -34 -22z"/>
</g>
</svg>
