<?xml version="1.0" standalone="no"?>
<!DOCTYPE svg PUBLIC "-//W3C//DTD SVG 20010904//EN"
 "http://www.w3.org/TR/2001/REC-SVG-20010904/DTD/svg10.dtd">
<svg version="1.0" xmlns="http://www.w3.org/2000/svg"
 width="128.000000pt" height="128.000000pt" viewBox="0 0 128.000000 128.000000"
 preserveAspectRatio="xMidYMid meet">

<g transform="translate(0.000000,128.000000) scale(0.100000,-0.100000)"
fill="#000000" stroke="none">
<path d="M727 1009 c-50 -8 -120 -44 -150 -76 -17 -19 -16 -20 25 -32 65 -19
121 -55 171 -111 31 -34 56 -52 79 -57 48 -9 119 -47 149 -80 39 -41 69 -107
76 -165 l6 -50 35 6 c82 13 152 90 160 177 4 39 -1 60 -22 104 -32 65 -87 102
-163 112 -44 5 -52 9 -69 41 -50 93 -179 150 -297 131z"/>
<path d="M409 824 c-54 -16 -140 -89 -159 -134 -11 -26 -17 -30 -54 -30 -22 0
-59 -9 -81 -19 -174 -80 -141 -331 50 -371 37 -8 159 -10 373 -8 307 3 318 4
359 26 24 12 55 41 70 64 24 36 28 52 28 114 0 81 -11 104 -78 158 -28 22 -50
30 -91 34 -52 4 -55 6 -85 52 -70 108 -203 154 -332 114z"/>
</g>
</svg>
