<?xml version="1.0" standalone="no"?>
<!DOCTYPE svg PUBLIC "-//W3C//DTD SVG 20010904//EN"
 "http://www.w3.org/TR/2001/REC-SVG-20010904/DTD/svg10.dtd">
<svg version="1.0" xmlns="http://www.w3.org/2000/svg"
 width="128.000000pt" height="128.000000pt" viewBox="0 0 128.000000 128.000000"
 preserveAspectRatio="xMidYMid meet">

<g transform="translate(0.000000,128.000000) scale(0.100000,-0.100000)"
fill="#000000" stroke="none">
<path d="M451 1174 c-61 -31 -103 -83 -120 -147 -8 -35 -17 -47 -41 -57 -86
-36 -161 -173 -134 -244 5 -13 14 -10 46 20 63 56 120 78 208 78 55 0 88 -6
122 -21 38 -17 54 -20 80 -12 56 16 153 11 212 -11 63 -24 138 -86 177 -148
33 -52 94 -96 124 -88 11 3 40 19 64 36 129 94 115 292 -26 375 -33 20 -54 40
-62 60 -43 118 -195 189 -325 151 -57 -17 -58 -17 -109 8 -70 36 -145 35 -216
0z"/>
<path d="M301 724 c-61 -31 -103 -83 -119 -147 -8 -31 -19 -47 -38 -55 -52
-25 -94 -65 -120 -118 -22 -44 -26 -64 -22 -109 6 -73 48 -140 112 -180 l49
-30 386 -3 c340 -2 391 -1 430 14 61 23 105 65 131 126 45 106 5 224 -97 283
-29 17 -52 35 -53 41 0 5 -13 31 -30 57 -36 57 -103 102 -178 118 -47 11 -64
10 -121 -4 l-66 -17 -49 25 c-68 35 -144 34 -215 -1z"/>
</g>
</svg>
