<?xml version="1.0" standalone="no"?>
<!DOCTYPE svg PUBLIC "-//W3C//DTD SVG 20010904//EN"
 "http://www.w3.org/TR/2001/REC-SVG-20010904/DTD/svg10.dtd">
<svg version="1.0" xmlns="http://www.w3.org/2000/svg"
 width="128.000000pt" height="128.000000pt" viewBox="0 0 128.000000 128.000000"
 preserveAspectRatio="xMidYMid meet">

<g transform="translate(0.000000,128.000000) scale(0.100000,-0.100000)"
fill="#000000" stroke="none">
<path d="M430 1171 c-15 -30 -12 -97 6 -115 36 -36 64 -10 64 59 0 28 -5 56
-12 63 -18 18 -46 14 -58 -7z"/>
<path d="M359 946 c-178 -63 -250 -279 -148 -441 l29 -46 30 34 c16 19 49 44
73 57 36 19 46 31 55 65 25 96 115 187 222 226 33 12 60 25 60 29 0 11 -69 57
-112 75 -45 18 -159 19 -209 1z"/>
<path d="M16 937 c-27 -20 -16 -49 29 -74 50 -29 89 -27 93 4 3 18 -7 29 -44
53 -55 34 -54 34 -78 17z"/>
<path d="M836 925 c-48 -29 -62 -51 -46 -71 18 -21 51 -17 93 11 38 26 47 51
25 73 -17 17 -27 15 -72 -13z"/>
<path d="M675 781 c-113 -30 -214 -141 -215 -237 0 -27 -5 -32 -40 -43 -174
-52 -202 -292 -45 -382 l50 -29 325 0 c305 0 328 2 370 21 55 25 105 71 133
124 17 31 22 58 22 115 0 57 -5 84 -22 115 -43 81 -138 144 -215 145 -31 0
-40 5 -52 28 -22 42 -87 103 -132 123 -47 21 -136 31 -179 20z"/>
<path d="M38 465 c-43 -28 -49 -58 -17 -76 30 -16 114 36 114 71 0 35 -48 37
-97 5z"/>
</g>
</svg>
