<?xml version="1.0" standalone="no"?>
<!DOCTYPE svg PUBLIC "-//W3C//DTD SVG 20010904//EN"
 "http://www.w3.org/TR/2001/REC-SVG-20010904/DTD/svg10.dtd">
<svg version="1.0" xmlns="http://www.w3.org/2000/svg"
 width="128.000000pt" height="128.000000pt" viewBox="0 0 128.000000 128.000000"
 preserveAspectRatio="xMidYMid meet">

<g transform="translate(0.000000,128.000000) scale(0.100000,-0.100000)"
fill="#000000" stroke="none">
<path d="M423 1261 c-100 -34 -171 -113 -194 -215 -11 -49 -13 -52 -72 -81
-73 -36 -120 -92 -143 -172 -51 -177 92 -363 272 -351 l47 3 106 195 c111 204
142 240 201 240 34 0 91 -37 107 -70 7 -15 13 -64 13 -117 l0 -93 70 0 c45 0
82 -6 101 -15 38 -20 69 -70 69 -112 l0 -33 53 0 c66 0 122 26 169 78 78 86
76 201 -4 288 -24 26 -56 49 -78 55 -34 10 -39 16 -44 51 -20 121 -112 200
-238 203 -67 1 -68 2 -98 43 -75 103 -213 146 -337 103z"/>
<path d="M606 778 c-38 -61 -246 -451 -246 -461 0 -30 25 -37 132 -37 l107 0
3 -131 c3 -113 6 -133 21 -143 11 -7 22 -8 33 -1 17 11 264 457 264 478 0 30
-24 37 -132 37 l-108 0 0 130 c0 118 -2 130 -19 140 -29 15 -39 13 -55 -12z"/>
</g>
</svg>
